<svg width="512" height="512" viewBox="0 0 512 512" fill="none" xmlns="http://www.w3.org/2000/svg">
<path d="M264.202 364.878C268.297 366.063 271.917 367.325 275.061 368.672C279.847 370.697 283.468 373.152 285.922 376.036C288.437 378.92 289.695 382.478 289.695 386.712C289.695 391.252 288.315 395.272 285.553 398.769C282.793 402.266 278.897 404.996 273.866 406.959C270.951 408.111 267.729 408.921 264.202 409.397V364.878Z" fill="oklch(0.627 0.194 149.214)"/>
<path d="M249.108 325.423C247.662 324.987 246.25 324.526 244.875 324.036C241.254 322.687 238.063 321.12 235.302 319.341C232.542 317.501 230.364 315.323 228.769 312.807C227.235 310.292 226.529 307.347 226.652 303.972C226.652 299.922 227.817 296.302 230.149 293.111C232.541 289.921 235.977 287.437 240.456 285.658C243.01 284.608 245.895 283.856 249.108 283.405V325.423Z" fill="oklch(0.627 0.194 149.214)"/>
<path fill-rule="evenodd" clip-rule="evenodd" d="M285.234 203.374L277.412 157.311C277.595 157.411 322.356 182.026 346.073 207.72C374.553 238.574 397.974 260.761 419.079 299.847C436.88 332.814 449.651 354.541 451.237 391.974L451.269 392.772C452.481 421.337 453.319 441.079 437.331 464.98C427.175 480.162 418.29 486.976 402.566 496.269C375.228 512.423 354.253 508.428 322.607 511.044C298.622 513.026 262.062 511.356 256.424 511.079C250.779 511.356 214.227 513.026 190.245 511.044C158.599 508.428 137.624 512.423 110.286 496.269C94.5615 486.976 85.677 480.162 75.5214 464.98C59.5327 441.079 60.3698 421.337 61.5815 392.772L61.6155 391.974C63.2014 354.541 75.9722 332.814 93.773 299.847C114.878 260.761 138.299 238.574 166.779 207.72C190.517 182.004 235.336 157.368 235.44 157.311L208.497 203.374L244.131 157.311H265.245L285.234 203.374ZM249.108 228.594V249.869C238.596 250.637 229.024 252.933 220.393 256.758C209.594 261.543 201.095 268.2 194.898 276.729C188.763 285.257 185.727 295.228 185.788 306.64C185.726 320.568 190.297 331.644 199.5 339.866C208.704 348.087 221.253 354.131 237.144 357.997L249.108 361V409.492C245.047 409.011 241.273 408.108 237.787 406.776C232.388 404.629 228.062 401.468 224.81 397.296C221.62 393.062 219.809 387.786 219.38 381.466H180.818C181.124 395.026 184.406 406.408 190.665 415.612C196.985 424.754 205.76 431.656 216.988 436.319C226.346 440.185 237.053 442.445 249.108 443.106V464.206H264.202V443.121C276.374 442.484 286.989 440.249 296.046 436.411C306.967 431.748 315.313 425.213 321.081 416.807C326.909 408.34 329.853 398.338 329.914 386.803C329.853 378.95 328.411 371.986 325.589 365.912C322.828 359.838 318.931 354.56 313.9 350.081C308.869 345.602 302.917 341.828 296.046 338.761C289.174 335.693 281.626 333.239 273.404 331.398L264.202 329.197V283.34C270.424 284.147 275.577 286.054 279.663 289.063C285.247 293.174 288.407 298.941 289.144 306.365H327.338C327.153 295.137 324.148 285.257 318.319 276.729C312.49 268.2 304.329 261.543 293.837 256.758C285.184 252.787 275.305 250.464 264.202 249.788V228.594H249.108Z" fill="oklch(0.627 0.194 149.214)"/>
<path d="M265.243 7.28015e-10C313.848 0.000110101 328.649 18.2017 328.689 18.2516L308.7 71.268L331.297 41.7178C331.297 41.7178 342.685 48.6453 346.941 55.6238C351.142 62.5115 353.37 67.6378 352.156 75.6136C351.034 82.9803 346.578 85.8289 342.595 92.1269C326.656 117.332 292.186 149.489 292.186 149.489C292.144 149.471 284.755 146.265 275.352 143.41L291.193 106.902L267.17 139.311L265.758 140.864C260.49 139.694 255.145 138.927 250.468 139.059C235.82 139.475 213.965 149.489 213.965 149.489L188.761 119.07L156.603 80.8283C156.601 80.8118 155.344 72.7191 156.603 67.7915C158.469 60.49 162.453 57.3533 167.902 52.1473C175.467 44.9195 191.306 39.1333 191.368 39.1105L216.573 88.6504L197.452 18.2516C197.439 18.212 191.448 -0.000133002 265.243 7.28015e-10Z" fill="oklch(0.627 0.194 149.214)"/>
</svg>
