<svg width="512" height="124" viewBox="0 0 512 124" fill="none" xmlns="http://www.w3.org/2000/svg">
<path d="M118.887 37.0891C120.718 37.2595 122.535 37.5416 124.336 37.9359C127.508 38.6303 130.359 39.6952 132.888 41.1303L127.991 53.0054C125.6 51.8017 123.278 50.8989 121.026 50.2971C118.819 49.6952 116.658 49.3937 114.543 49.3937C112.979 49.3937 111.738 49.5331 110.818 49.8109C109.899 50.0887 109.232 50.4588 108.818 50.9217C108.451 51.3846 108.267 51.8941 108.267 52.4497C108.267 53.2829 108.749 53.954 109.715 54.4632C110.68 54.9261 111.945 55.3201 113.508 55.6441C115.117 55.9682 116.864 56.315 118.749 56.6853C120.68 57.0557 122.589 57.5652 124.474 58.2133C126.359 58.8615 128.083 59.7178 129.646 60.7826C131.256 61.8474 132.543 63.2364 133.509 64.9493C134.474 66.6623 134.957 68.792 134.957 71.3382C134.957 74.3012 134.106 77.0327 132.405 79.5327C130.75 81.9863 128.267 83.9772 124.957 85.505C123.179 86.3005 121.156 86.8816 118.887 87.25V94.9492H109.163V87.6202C106.286 87.4355 103.481 87.0092 100.749 86.3382C96.9787 85.4123 93.8753 84.2086 91.4385 82.7271L96.6799 70.7825C98.9788 72.1251 101.531 73.2132 104.335 74.0465C107.186 74.8335 109.945 75.2275 112.612 75.2275C114.175 75.2275 115.393 75.1344 116.266 74.9493C117.186 74.7178 117.853 74.4169 118.266 74.0465C118.68 73.6299 118.887 73.1436 118.887 72.5881C118.887 71.7085 118.405 71.0142 117.439 70.505C116.474 69.9957 115.186 69.5792 113.577 69.2552C112.014 68.8848 110.289 68.5141 108.404 68.1438C106.519 67.7271 104.611 67.195 102.68 66.5469C100.795 65.8987 99.0477 65.0418 97.4385 63.977C95.8753 62.9122 94.6107 61.5237 93.6452 59.8109C92.6796 58.0516 92.197 55.8754 92.197 53.2829C92.197 50.2737 93.0247 47.5421 94.6799 45.0884C96.3811 42.5885 98.8872 40.5976 102.198 39.1162C104.226 38.2211 106.547 37.5966 109.163 37.2424V29.6719H118.887V37.0891Z" fill="oklch(0.627 0.194 149.214)"/>
<path d="M38.3418 25.8768C45.0924 25.8768 51.0566 27.0569 56.2342 29.4164C56.6271 29.5932 57.0146 29.7764 57.3972 29.965C56.016 32.5336 54.7972 35.2068 53.7545 37.9701C52.4233 41.4984 51.4008 45.1145 50.6863 48.7769C49.7546 48.0278 48.7863 47.3738 47.7797 46.8175C45.3547 45.3756 42.6018 44.6546 39.5215 44.6546C37.0965 44.6546 34.9005 45.0477 32.9342 45.8342C30.9681 46.6207 29.2641 47.7679 27.8222 49.2753C26.4459 50.7827 25.3646 52.618 24.5782 54.7808C23.7917 56.878 23.3979 59.2378 23.3979 61.8593C23.3979 64.4808 23.7917 66.873 24.5782 69.0357C25.3646 71.1329 26.4459 72.9353 27.8222 74.4427C29.2641 75.95 30.9681 77.0973 32.9342 77.8837C34.9005 78.6702 37.0965 79.0634 39.5215 79.0634C42.6018 79.0634 45.3547 78.3753 47.7797 76.999C50.0418 75.6893 52.1136 73.9188 53.9973 71.6899C53.9717 71.5307 53.9457 71.3715 53.9213 71.2122H54.3927C54.4493 71.1422 54.507 71.073 54.5633 71.0022L54.7983 71.2122H75.3932C75.8282 73.0276 76.3889 74.819 77.0751 76.5727C80.7597 85.9888 87.79 93.614 96.7415 97.9037C105.623 102.16 115.738 102.816 125.066 99.7478V122.083C112.56 124.676 99.5075 123.117 87.8356 117.524C76.3735 112.031 66.956 102.99 60.8408 91.7652C59.3931 92.7047 57.8579 93.5507 56.2342 94.3016C51.0566 96.661 45.0924 97.8412 38.3418 97.8412C32.8364 97.8412 27.724 96.9889 23.0051 95.2849C18.3518 93.5153 14.2881 91.0249 10.8145 87.8135C7.40645 84.6021 4.75193 80.8003 2.85125 76.4092C0.950613 72.0181 5.64382e-05 67.168 0 61.8593C0 56.5505 0.950599 51.7 2.85125 47.3088C4.75192 42.9177 7.40647 39.1159 10.8145 35.9045C14.2881 32.6931 18.3518 30.2357 23.0051 28.5316C27.724 26.762 32.8364 25.8768 38.3418 25.8768Z" fill="#09090B"/>
<path fill-rule="evenodd" clip-rule="evenodd" d="M410.478 25.8768C416.115 25.8768 421.292 26.762 426.011 28.5316C430.73 30.3012 434.827 32.8244 438.3 36.1015C441.774 39.3129 444.461 43.1141 446.362 47.5052C448.328 51.8309 449.311 56.6161 449.311 61.8593C449.311 67.0369 448.328 71.8217 446.362 76.2128C444.461 80.6039 441.774 84.438 438.3 87.715C434.827 90.9265 430.73 93.4174 426.011 95.187C421.292 96.9565 416.114 97.8412 410.478 97.8412C404.907 97.8412 399.729 96.9565 394.945 95.187C390.226 93.4174 386.13 90.9265 382.656 87.715C379.182 84.4381 376.462 80.6039 374.496 76.2128C372.596 71.8217 371.645 67.0369 371.645 61.8593C371.645 56.6161 372.596 51.8309 374.496 47.5052C376.462 43.1142 379.182 39.3129 382.656 36.1015C386.13 32.8244 390.226 30.3012 394.945 28.5316C399.729 26.762 404.907 25.8768 410.478 25.8768ZM410.478 44.6546C408.315 44.6546 406.283 45.0477 404.383 45.8342C402.548 46.6207 400.909 47.7679 399.467 49.2753C398.091 50.7172 397.01 52.5195 396.223 54.6823C395.437 56.7795 395.043 59.1722 395.043 61.8593C395.043 64.5463 395.437 66.9715 396.223 69.1342C397.01 71.2314 398.091 73.0338 399.467 74.5412C400.909 75.983 402.548 77.0973 404.383 77.8837C406.283 78.6702 408.315 79.0634 410.478 79.0634C412.641 79.0634 414.64 78.6702 416.475 77.8837C418.375 77.0973 420.014 75.983 421.39 74.5412C422.832 73.0338 423.947 71.2314 424.733 69.1342C425.519 66.9715 425.913 64.5463 425.913 61.8593C425.913 59.1722 425.519 56.7795 424.733 54.6823C423.947 52.5195 422.832 50.7172 421.39 49.2753C420.014 47.7679 418.375 46.6207 416.475 45.8342C414.64 45.0478 412.641 44.6546 410.478 44.6546Z" fill="#09090B"/>
<path d="M87.1614 6.10607C100.876 -0.680619 116.59 -1.85744 131.118 2.81375C144.254 7.03748 155.532 15.7575 163.119 27.4499H176.877L203.028 58.7428V27.4499H225.64V96.2681H206.567L180.417 64.9752V96.2681L134.111 96.2675C142.28 90.6681 148.744 80.8279 151.044 71.0319C153.36 61.1664 151.941 50.7649 147.072 41.9347C142.204 33.1045 134.251 26.5053 124.825 23.4743C115.398 20.4435 105.203 21.2074 96.3037 25.6109C87.4049 30.0145 80.4678 37.7294 76.8974 47.1916C76.051 49.4349 75.4089 51.7367 74.9708 54.0686H53.6509C54.2534 49.0728 55.4534 44.1337 57.2523 39.3661C62.7549 24.7829 73.4465 12.8929 87.1614 6.10607Z" fill="#09090B"/>
<path d="M295.118 45.4408H274.964V96.2681H251.762V45.4408H231.609V27.4499H295.118V45.4408Z" fill="#09090B"/>
<path fill-rule="evenodd" clip-rule="evenodd" d="M334.275 27.4499C340.698 27.4499 346.236 28.4987 350.89 30.596C355.608 32.6933 359.246 35.7081 361.802 39.6404C364.358 43.5073 365.637 48.0954 365.637 53.4041C365.637 58.7128 364.358 63.3008 361.802 67.1677C359.575 70.4795 356.527 73.1192 352.658 75.0879L367.111 96.2681H342.337L330.666 78.9655H324.346V96.2681H301.144V27.4499H334.275ZM324.346 61.4659H332.8C336.012 61.4659 338.371 60.7448 339.879 59.303C341.452 57.8611 342.238 55.8946 342.238 53.4041C342.238 50.9136 341.452 48.9471 339.879 47.5052C338.371 46.0634 336.012 45.3429 332.8 45.3429H324.346V61.4659Z" fill="#09090B"/>
<path d="M480.934 78.2772H512V96.2681H457.732V27.4499H480.934V78.2772Z" fill="#09090B"/>
</svg>
